<svg xmlns="http://www.w3.org/2000/svg" xmlns:xlink="http://www.w3.org/1999/xlink" width="1385" zoomAndPan="magnify" viewBox="0 0 1038.75 809.999993" height="1080" preserveAspectRatio="xMidYMid meet" version="1.0"><defs><clipPath id="29b12d22dd"><path d="M 0 0.0976562 L 1038.5 0.0976562 L 1038.5 809.902344 L 0 809.902344 Z M 0 0.0976562 " clip-rule="nonzero"/></clipPath><clipPath id="3cda2d59c4"><path d="M 80.980469 81.078125 L 957.519531 81.078125 L 957.519531 490.101562 L 80.980469 490.101562 Z M 80.980469 81.078125 " clip-rule="nonzero"/></clipPath><clipPath id="2cb4bb3623"><path d="M 80.988281 81.078125 L 957.511719 81.078125 L 957.511719 489.730469 L 80.988281 489.730469 Z M 80.988281 81.078125 " clip-rule="nonzero"/></clipPath><clipPath id="dbc0ca3124"><path d="M 442.636719 570.84375 L 595.863281 570.84375 L 595.863281 728.921875 L 442.636719 728.921875 Z M 442.636719 570.84375 " clip-rule="nonzero"/></clipPath><clipPath id="71dd2d6559"><path d="M 442.636719 570.84375 L 595.597656 570.84375 L 595.597656 728.914062 L 442.636719 728.914062 Z M 442.636719 570.84375 " clip-rule="nonzero"/></clipPath><clipPath id="7ba0a450f0"><path d="M 80.980469 490.101562 L 957.519531 490.101562 L 957.519531 599.6875 L 80.980469 599.6875 Z M 80.980469 490.101562 " clip-rule="nonzero"/></clipPath><clipPath id="7a85f1a908"><path d="M 81.011719 490.101562 L 957.488281 490.101562 L 957.488281 599.574219 L 81.011719 599.574219 Z M 81.011719 490.101562 " clip-rule="nonzero"/></clipPath><clipPath id="eab2d71137"><path d="M 80.980469 338.371094 L 487.941406 338.371094 L 487.941406 491.601562 L 80.980469 491.601562 Z M 80.980469 338.371094 " clip-rule="nonzero"/></clipPath><clipPath id="f3170c99f7"><path d="M 80.988281 338.371094 L 487.925781 338.371094 L 487.925781 491.332031 L 80.988281 491.332031 Z M 80.988281 338.371094 " clip-rule="nonzero"/></clipPath><clipPath id="7400aa402d"><path d="M 546.8125 338.371094 L 957.519531 338.371094 L 957.519531 491.601562 L 546.8125 491.601562 Z M 546.8125 338.371094 " clip-rule="nonzero"/></clipPath><clipPath id="2f04a9a411"><path d="M 546.820312 338.371094 L 957.503906 338.371094 L 957.503906 491.332031 L 546.820312 491.332031 Z M 546.820312 338.371094 " clip-rule="nonzero"/></clipPath><clipPath id="e6f7cb2956"><path d="M 80.980469 81.078125 L 463.484375 81.078125 L 463.484375 234.308594 L 80.980469 234.308594 Z M 80.980469 81.078125 " clip-rule="nonzero"/></clipPath><clipPath id="ff3112e410"><path d="M 80.992188 81.078125 L 463.386719 81.078125 L 463.386719 234.042969 L 80.992188 234.042969 Z M 80.992188 81.078125 " clip-rule="nonzero"/></clipPath><clipPath id="a01a4a18f1"><path d="M 575.015625 81.078125 L 957.519531 81.078125 L 957.519531 234.308594 L 575.015625 234.308594 Z M 575.015625 81.078125 " clip-rule="nonzero"/></clipPath><clipPath id="af8fa3d349"><path d="M 575.027344 81.078125 L 957.425781 81.078125 L 957.425781 234.042969 L 575.027344 234.042969 Z M 575.027344 81.078125 " clip-rule="nonzero"/></clipPath><clipPath id="c0d61d4e92"><path d="M 456.628906 81.078125 L 519.25 81.078125 L 519.25 234.308594 L 456.628906 234.308594 Z M 456.628906 81.078125 " clip-rule="nonzero"/></clipPath><clipPath id="d977a3d18c"><path d="M 456.628906 81.085938 L 519.238281 81.085938 L 519.238281 234.042969 L 456.628906 234.042969 Z M 456.628906 81.085938 " clip-rule="nonzero"/></clipPath><clipPath id="d33c663ad6"><path d="M 515.5 81.078125 L 578.121094 81.078125 L 578.121094 234.308594 L 515.5 234.308594 Z M 515.5 81.078125 " clip-rule="nonzero"/></clipPath><clipPath id="b60efebc2c"><path d="M 515.5 81.085938 L 578.109375 81.085938 L 578.109375 234.042969 L 515.5 234.042969 Z M 515.5 81.085938 " clip-rule="nonzero"/></clipPath><clipPath id="527be340b6"><path d="M 80.980469 81.078125 L 206.792969 81.078125 L 206.792969 234.308594 L 80.980469 234.308594 Z M 80.980469 81.078125 " clip-rule="nonzero"/></clipPath><clipPath id="eb6750c760"><path d="M 80.980469 81.078125 L 206.785156 81.078125 L 206.785156 234.042969 L 80.980469 234.042969 Z M 80.980469 81.078125 " clip-rule="nonzero"/></clipPath><clipPath id="3dc073ff36"><path d="M 360.089844 81.078125 L 459.628906 81.078125 L 459.628906 234.308594 L 360.089844 234.308594 Z M 360.089844 81.078125 " clip-rule="nonzero"/></clipPath><clipPath id="2fd75f4761"><path d="M 360.089844 81.078125 L 459.625 81.078125 L 459.625 234.042969 L 360.089844 234.042969 Z M 360.089844 81.078125 " clip-rule="nonzero"/></clipPath><clipPath id="2b2fbfbb54"><path d="M 80.980469 338.371094 L 150.742188 338.371094 L 150.742188 491.601562 L 80.980469 491.601562 Z M 80.980469 338.371094 " clip-rule="nonzero"/></clipPath><clipPath id="65da32354d"><path d="M 80.980469 338.371094 L 150.714844 338.371094 L 150.714844 491.332031 L 80.980469 491.332031 Z M 80.980469 338.371094 " clip-rule="nonzero"/></clipPath><clipPath id="907e042885"><path d="M 142.996094 338.371094 L 275.089844 338.371094 L 275.089844 491.601562 L 142.996094 491.601562 Z M 142.996094 338.371094 " clip-rule="nonzero"/></clipPath><clipPath id="bd64ac2975"><path d="M 142.996094 338.371094 L 274.964844 338.371094 L 274.964844 491.332031 L 142.996094 491.332031 Z M 142.996094 338.371094 " clip-rule="nonzero"/></clipPath><clipPath id="e7373c1854"><path d="M 395.175781 338.371094 L 487.941406 338.371094 L 487.941406 491.601562 L 395.175781 491.601562 Z M 395.175781 338.371094 " clip-rule="nonzero"/></clipPath><clipPath id="dfb6d37fce"><path d="M 395.175781 338.375 L 487.929688 338.375 L 487.929688 491.332031 L 395.175781 491.332031 Z M 395.175781 338.375 " clip-rule="nonzero"/></clipPath><clipPath id="65eb6ead3b"><path d="M 272.230469 338.371094 L 398.175781 338.371094 L 398.175781 491.601562 L 272.230469 491.601562 Z M 272.230469 338.371094 " clip-rule="nonzero"/></clipPath><clipPath id="8593357bed"><path d="M 272.230469 338.371094 L 398.167969 338.371094 L 398.167969 491.332031 L 272.230469 491.332031 Z M 272.230469 338.371094 " clip-rule="nonzero"/></clipPath><clipPath id="b2313b41b4"><path d="M 574.265625 81.078125 L 706.359375 81.078125 L 706.359375 234.308594 L 574.265625 234.308594 Z M 574.265625 81.078125 " clip-rule="nonzero"/></clipPath><clipPath id="667cd74ffc"><path d="M 574.265625 81.078125 L 706.234375 81.078125 L 706.234375 234.042969 L 574.265625 234.042969 Z M 574.265625 81.078125 " clip-rule="nonzero"/></clipPath><clipPath id="f8212e25e7"><path d="M 703.359375 81.078125 L 835.453125 81.078125 L 835.453125 234.308594 L 703.359375 234.308594 Z M 703.359375 81.078125 " clip-rule="nonzero"/></clipPath><clipPath id="48742f74b3"><path d="M 703.359375 81.078125 L 835.328125 81.078125 L 835.328125 234.042969 L 703.359375 234.042969 Z M 703.359375 81.078125 " clip-rule="nonzero"/></clipPath><clipPath id="4fe98cf6aa"><path d="M 547.273438 338.371094 L 608.542969 338.371094 L 608.542969 491.601562 L 547.273438 491.601562 Z M 547.273438 338.371094 " clip-rule="nonzero"/></clipPath><clipPath id="24c87ca02e"><path d="M 547.273438 338.375 L 608.535156 338.375 L 608.535156 491.332031 L 547.273438 491.332031 Z M 547.273438 338.375 " clip-rule="nonzero"/></clipPath><clipPath id="ed1a411e36"><path d="M 713.859375 338.371094 L 845.953125 338.371094 L 845.953125 491.601562 L 713.859375 491.601562 Z M 713.859375 338.371094 " clip-rule="nonzero"/></clipPath><clipPath id="c6b5579445"><path d="M 713.859375 338.371094 L 845.828125 338.371094 L 845.828125 491.332031 L 713.859375 491.332031 Z M 713.859375 338.371094 " clip-rule="nonzero"/></clipPath></defs><g clip-path="url(#29b12d22dd)"><path fill="#ffffff" d="M 0 0.0976562 L 1038.5 0.0976562 L 1038.5 809.902344 L 0 809.902344 Z M 0 0.0976562 " fill-opacity="1" fill-rule="nonzero"/><path fill="#ffffff" d="M 0 0.0976562 L 1038.5 0.0976562 L 1038.5 809.902344 L 0 809.902344 Z M 0 0.0976562 " fill-opacity="1" fill-rule="nonzero"/></g><g clip-path="url(#3cda2d59c4)"><path fill="#919191" d="M 80.980469 81.078125 L 958.144531 81.078125 L 958.144531 490.101562 L 80.980469 490.101562 Z M 80.980469 81.078125 " fill-opacity="1" fill-rule="nonzero"/></g><g clip-path="url(#2cb4bb3623)"><path stroke-linecap="butt" transform="matrix(0.74982, 0, 0, 0.74982, 80.989608, 81.077973)" fill="none" stroke-linejoin="miter" d="M -0.00176908 0.000203119 L 1168.977471 0.000203119 L 1168.977471 545.485645 L -0.00176908 545.485645 Z M -0.00176908 0.000203119 " stroke="#000000" stroke-width="8" stroke-opacity="1" stroke-miterlimit="4"/></g><g clip-path="url(#dbc0ca3124)"><path fill="#919191" d="M 442.636719 570.84375 L 595.863281 570.84375 L 595.863281 728.859375 L 442.636719 728.859375 Z M 442.636719 570.84375 " fill-opacity="1" fill-rule="nonzero"/></g><g clip-path="url(#71dd2d6559)"><path stroke-linecap="butt" transform="matrix(0.74982, 0, 0, 0.74982, 442.634915, 570.843327)" fill="none" stroke-linejoin="miter" d="M 0.00240573 0.00056473 L 204.343236 0.00056473 L 204.343236 210.811701 L 0.00240573 210.811701 Z M 0.00240573 0.00056473 " stroke="#000000" stroke-width="8" stroke-opacity="1" stroke-miterlimit="4"/></g><g clip-path="url(#7ba0a450f0)"><path fill="#919191" d="M 80.980469 490.101562 L 957.675781 490.101562 L 957.675781 599.6875 L 80.980469 599.6875 Z M 80.980469 490.101562 " fill-opacity="1" fill-rule="nonzero"/></g><g clip-path="url(#7a85f1a908)"><path stroke-linecap="butt" transform="matrix(0.74982, 0, 0, 0.74982, 81.011284, 490.101274)" fill="none" stroke-linejoin="miter" d="M 0.000579642 0.000384195 L 1168.917305 0.000384195 L 1168.917305 146.13972 L 0.000579642 146.13972 Z M 0.000579642 0.000384195 " stroke="#000000" stroke-width="8" stroke-opacity="1" stroke-miterlimit="4"/></g><g clip-path="url(#eab2d71137)"><path fill="#d9d9d9" d="M 80.980469 338.371094 L 488 338.371094 L 488 491.601562 L 80.980469 491.601562 Z M 80.980469 338.371094 " fill-opacity="1" fill-rule="nonzero"/></g><g clip-path="url(#f3170c99f7)"><path stroke-linecap="butt" transform="matrix(0.74982, 0, 0, 0.74982, 80.989557, 338.370774)" fill="none" stroke-linejoin="miter" d="M -0.00170188 0.000426015 L 542.712205 0.000426015 L 542.712205 204.341256 L -0.00170188 204.341256 Z M -0.00170188 0.000426015 " stroke="#000000" stroke-width="8" stroke-opacity="1" stroke-miterlimit="4"/></g><g clip-path="url(#7400aa402d)"><path fill="#d9d9d9" d="M 546.8125 338.371094 L 957.421875 338.371094 L 957.421875 491.601562 L 546.8125 491.601562 Z M 546.8125 338.371094 " fill-opacity="1" fill-rule="nonzero"/></g><g clip-path="url(#2f04a9a411)"><path stroke-linecap="butt" transform="matrix(0.74982, 0, 0, 0.74982, 546.820404, 338.370774)" fill="none" stroke-linejoin="miter" d="M -0.000121787 0.000426015 L 547.709779 0.000426015 L 547.709779 204.341256 L -0.000121787 204.341256 Z M -0.000121787 0.000426015 " stroke="#000000" stroke-width="8" stroke-opacity="1" stroke-miterlimit="4"/></g><g clip-path="url(#e6f7cb2956)"><path fill="#d9d9d9" d="M 80.980469 81.078125 L 463.457031 81.078125 L 463.457031 234.308594 L 80.980469 234.308594 Z M 80.980469 81.078125 " fill-opacity="1" fill-rule="nonzero"/></g><g clip-path="url(#ff3112e410)"><path stroke-linecap="butt" transform="matrix(0.74982, 0, 0, 0.74982, 80.991359, 81.077973)" fill="none" stroke-linejoin="miter" d="M 0.00110451 0.000203119 L 510.097789 0.000203119 L 510.097789 204.346242 L 0.00110451 204.346242 Z M 0.00110451 0.000203119 " stroke="#000000" stroke-width="8" stroke-opacity="1" stroke-miterlimit="4"/></g><g clip-path="url(#a01a4a18f1)"><path fill="#d9d9d9" d="M 575.015625 81.078125 L 957.492188 81.078125 L 957.492188 234.308594 L 575.015625 234.308594 Z M 575.015625 81.078125 " fill-opacity="1" fill-rule="nonzero"/></g><g clip-path="url(#af8fa3d349)"><path stroke-linecap="butt" transform="matrix(0.74982, 0, 0, 0.74982, 575.02739, 81.077973)" fill="none" stroke-linejoin="miter" d="M -0.0000616252 0.000203119 L 510.096623 0.000203119 L 510.096623 204.346242 L -0.0000616252 204.346242 Z M -0.0000616252 0.000203119 " stroke="#000000" stroke-width="8" stroke-opacity="1" stroke-miterlimit="4"/></g><g clip-path="url(#c0d61d4e92)"><path fill="#d9d9d9" d="M 456.628906 81.078125 L 519.25 81.078125 L 519.25 234.203125 L 456.628906 234.203125 Z M 456.628906 81.078125 " fill-opacity="1" fill-rule="nonzero"/></g><g clip-path="url(#d977a3d18c)"><path stroke-linecap="butt" transform="matrix(0.74982, 0, 0, 0.74982, 456.629426, 81.086423)" fill="none" stroke-linejoin="miter" d="M -0.000693421 -0.000648107 L 83.498568 -0.000648107 L 83.498568 204.319356 L -0.000693421 204.319356 Z M -0.000693421 -0.000648107 " stroke="#000000" stroke-width="8" stroke-opacity="1" stroke-miterlimit="4"/></g><g clip-path="url(#d33c663ad6)"><path fill="#919191" d="M 515.5 81.078125 L 578.121094 81.078125 L 578.121094 234.203125 L 515.5 234.203125 Z M 515.5 81.078125 " fill-opacity="1" fill-rule="nonzero"/></g><g clip-path="url(#b60efebc2c)"><path stroke-linecap="butt" transform="matrix(0.74982, 0, 0, 0.74982, 515.500911, 81.086423)" fill="none" stroke-linejoin="miter" d="M -0.00121484 -0.000648107 L 83.498047 -0.000648107 L 83.498047 204.319356 L -0.00121484 204.319356 Z M -0.00121484 -0.000648107 " stroke="#000000" stroke-width="8" stroke-opacity="1" stroke-miterlimit="4"/></g><g clip-path="url(#527be340b6)"><path fill="#d9d9d9" d="M 80.980469 81.078125 L 206.792969 81.078125 L 206.792969 234.414062 L 80.980469 234.414062 Z M 80.980469 81.078125 " fill-opacity="1" fill-rule="nonzero"/></g><g clip-path="url(#eb6750c760)"><path stroke-linecap="butt" transform="matrix(0.74982, 0, 0, 0.74982, 80.980507, 81.078347)" fill="none" stroke-linejoin="miter" d="M -0.0000506544 -0.000296081 L 167.779899 -0.000296081 L 167.779899 204.340534 L -0.0000506544 204.340534 Z M -0.0000506544 -0.000296081 " stroke="#000000" stroke-width="8" stroke-opacity="1" stroke-miterlimit="4"/></g><g clip-path="url(#3dc073ff36)"><path fill="#d9d9d9" d="M 360.089844 81.078125 L 459.628906 81.078125 L 459.628906 234.277344 L 360.089844 234.277344 Z M 360.089844 81.078125 " fill-opacity="1" fill-rule="nonzero"/></g><g clip-path="url(#2fd75f4761)"><path stroke-linecap="butt" transform="matrix(0.74982, 0, 0, 0.74982, 360.091153, 81.077973)" fill="none" stroke-linejoin="miter" d="M -0.00174643 0.000203119 L 132.743733 0.000203119 L 132.743733 204.346242 L -0.00174643 204.346242 Z M -0.00174643 0.000203119 " stroke="#000000" stroke-width="8" stroke-opacity="1" stroke-miterlimit="4"/></g><g clip-path="url(#2b2fbfbb54)"><path fill="#d9d9d9" d="M 80.980469 338.371094 L 150.742188 338.371094 L 150.742188 491.519531 L 80.980469 491.519531 Z M 80.980469 338.371094 " fill-opacity="1" fill-rule="nonzero"/></g><g clip-path="url(#65da32354d)"><path stroke-linecap="butt" transform="matrix(0.74982, 0, 0, 0.74982, 80.980507, 338.370949)" fill="none" stroke-linejoin="miter" d="M -0.0000506544 0.000192415 L 93.032749 0.000192415 L 93.032749 204.341022 L -0.0000506544 204.341022 Z M -0.0000506544 0.000192415 " stroke="#000000" stroke-width="8" stroke-opacity="1" stroke-miterlimit="4"/></g><g clip-path="url(#907e042885)"><path fill="#d9d9d9" d="M 142.996094 338.371094 L 275.089844 338.371094 L 275.089844 491.621094 L 142.996094 491.621094 Z M 142.996094 338.371094 " fill-opacity="1" fill-rule="nonzero"/></g><g clip-path="url(#bd64ac2975)"><path stroke-linecap="butt" transform="matrix(0.74982, 0, 0, 0.74982, 142.996979, 338.370981)" fill="none" stroke-linejoin="miter" d="M -0.00118089 0.000150815 L 176.155785 0.000150815 L 176.155785 204.340981 L -0.00118089 204.340981 Z M -0.00118089 0.000150815 " stroke="#000000" stroke-width="8" stroke-opacity="1" stroke-miterlimit="4"/></g><g clip-path="url(#e7373c1854)"><path fill="#d9d9d9" d="M 395.175781 338.371094 L 487.941406 338.371094 L 487.941406 491.648438 L 395.175781 491.648438 Z M 395.175781 338.371094 " fill-opacity="1" fill-rule="nonzero"/></g><g clip-path="url(#dfb6d37fce)"><path stroke-linecap="butt" transform="matrix(0.74982, 0, 0, 0.74982, 395.176057, 338.373294)" fill="none" stroke-linejoin="miter" d="M -0.000368252 0.0022756 L 123.701276 0.0022756 L 123.701276 204.337909 L -0.000368252 204.337909 Z M -0.000368252 0.0022756 " stroke="#000000" stroke-width="8" stroke-opacity="1" stroke-miterlimit="4"/></g><g clip-path="url(#65eb6ead3b)"><path fill="#d9d9d9" d="M 272.230469 338.371094 L 398.175781 338.371094 L 398.175781 491.371094 L 272.230469 491.371094 Z M 272.230469 338.371094 " fill-opacity="1" fill-rule="nonzero"/></g><g clip-path="url(#8593357bed)"><path stroke-linecap="butt" transform="matrix(0.74982, 0, 0, 0.74982, 272.23199, 338.371506)" fill="none" stroke-linejoin="miter" d="M -0.00202819 -0.000549985 L 167.955048 -0.000549985 L 167.955048 204.34028 L -0.00202819 204.34028 Z M -0.00202819 -0.000549985 " stroke="#000000" stroke-width="8" stroke-opacity="1" stroke-miterlimit="4"/></g><g clip-path="url(#b2313b41b4)"><path fill="#d9d9d9" d="M 574.265625 81.078125 L 706.359375 81.078125 L 706.359375 234.328125 L 574.265625 234.328125 Z M 574.265625 81.078125 " fill-opacity="1" fill-rule="nonzero"/></g><g clip-path="url(#667cd74ffc)"><path stroke-linecap="butt" transform="matrix(0.74982, 0, 0, 0.74982, 574.266725, 81.078162)" fill="none" stroke-linejoin="miter" d="M -0.0014671 -0.0000496811 L 176.155498 -0.0000496811 L 176.155498 204.34078 L -0.0014671 204.34078 Z M -0.0014671 -0.0000496811 " stroke="#000000" stroke-width="8" stroke-opacity="1" stroke-miterlimit="4"/></g><g clip-path="url(#f8212e25e7)"><path fill="#d9d9d9" d="M 703.359375 81.078125 L 835.453125 81.078125 L 835.453125 234.328125 L 703.359375 234.328125 Z M 703.359375 81.078125 " fill-opacity="1" fill-rule="nonzero"/></g><g clip-path="url(#48742f74b3)"><path stroke-linecap="butt" transform="matrix(0.74982, 0, 0, 0.74982, 703.361098, 81.078162)" fill="none" stroke-linejoin="miter" d="M -0.00229794 -0.0000496811 L 176.154668 -0.0000496811 L 176.154668 204.34078 L -0.00229794 204.34078 Z M -0.00229794 -0.0000496811 " stroke="#000000" stroke-width="8" stroke-opacity="1" stroke-miterlimit="4"/></g><g clip-path="url(#4fe98cf6aa)"><path fill="#d9d9d9" d="M 547.273438 338.371094 L 608.542969 338.371094 L 608.542969 491.542969 L 547.273438 491.542969 Z M 547.273438 338.371094 " fill-opacity="1" fill-rule="nonzero"/></g><g clip-path="url(#24c87ca02e)"><path stroke-linecap="butt" transform="matrix(0.74982, 0, 0, 0.74982, 547.273223, 338.373147)" fill="none" stroke-linejoin="miter" d="M 0.000286312 0.0024708 L 81.70224 0.0024708 L 81.70224 204.338104 L 0.000286312 204.338104 Z M 0.000286312 0.0024708 " stroke="#000000" stroke-width="8" stroke-opacity="1" stroke-miterlimit="4"/></g><g clip-path="url(#ed1a411e36)"><path fill="#d9d9d9" d="M 713.859375 338.371094 L 845.953125 338.371094 L 845.953125 491.621094 L 713.859375 491.621094 Z M 713.859375 338.371094 " fill-opacity="1" fill-rule="nonzero"/></g><g clip-path="url(#c6b5579445)"><path stroke-linecap="butt" transform="matrix(0.74982, 0, 0, 0.74982, 713.858571, 338.370981)" fill="none" stroke-linejoin="miter" d="M 0.00107208 0.000150815 L 176.158038 0.000150815 L 176.158038 204.340981 L 0.00107208 204.340981 Z M 0.00107208 0.000150815 " stroke="#000000" stroke-width="8" stroke-opacity="1" stroke-miterlimit="4"/></g></svg>